<?xml version="1.0" encoding="UTF-8"?>
<!DOCTYPE svg PUBLIC "-//W3C//DTD SVG 1.1//EN" "http://www.w3.org/Graphics/SVG/1.1/DTD/svg11.dtd">
<!-- Creator: CorelDRAW -->
<svg xmlns="http://www.w3.org/2000/svg" xml:space="preserve" width="1.70666in" height="1.70666in" version="1.1" style="shape-rendering:geometricPrecision; text-rendering:geometricPrecision; image-rendering:optimizeQuality; fill-rule:evenodd; clip-rule:evenodd"
viewBox="0 0 1706.66 1706.66"
 xmlns:xlink="http://www.w3.org/1999/xlink"
 xmlns:xodm="http://www.corel.com/coreldraw/odm/2003">
 <defs>
  <style type="text/css">
   <![CDATA[
    .fil0 {fill:black}
   ]]>
  </style>
 </defs>
 <g id="Layer_x0020_1">
  <metadata id="CorelCorpID_0Corel-Layer"/>
  <path class="fil0" d="M1419.37 1706.67l-1132.22 0c-53.47,0 -96.94,-43.47 -96.94,-96.94l0.28 -296.53c6.97,-147.07 121.02,-263.27 264.23,-275.33 -17.7,35.54 -21.59,64.83 -21.59,106.32 -86.43,21.83 -159.58,90.68 -159.58,185.96l0 80.83c0,33.11 26.87,60 60,60l82.36 0c79.38,0 78.59,-119.99 0,-119.99l-22.37 0 0 -20.84c0,-48.14 57.21,-73.2 98.34,-73.2 41.19,0 98.34,24.91 98.34,73.2l0 20.84 -22.92 0c-79.38,0 -78.59,119.99 0,119.99l82.92 0c33.19,0 60,-26.81 60,-60l0 -80.83c0,-94.44 -71.72,-162.83 -157.09,-185.33l0 -13c0,-48.37 34.66,-79.85 76.33,-95 5.13,-0.9 36.35,-3.26 45.06,7.5l170.56 214.31 167.22 -206.25c1.94,-8.89 10,-15.69 19.58,-15.69l13.39 0c41.23,16.91 87.04,53.5 87.04,95.28l0 51.33c-53.61,23.29 -91.25,76.78 -91.25,138.81 0,83.39 67.85,151.24 151.24,151.24 83.4,0 151.24,-67.86 151.24,-151.24 0,-61.97 -37.57,-115.43 -91.11,-138.75 0,-57.35 4.26,-93.63 -27.29,-146.67 163.37,0 291.33,130.15 291.33,289.17l0 283.61c-0.14,53.75 -43.61,97.22 -97.09,97.22z"/>
  <path class="fil0" d="M515.34 661.4c-13.61,0 -26.94,-2.78 -38.19,-7.78 -30.83,-13.75 -46.53,-41.94 -41.25,-74.17l-1.94 -92.22 0 -218.75c-0.14,-1.39 -9.58,-242.64 288.75,-268.33 50.2,-4.93 497.47,110 591.94,6.39 12.39,-13.59 34.72,-4.46 34.72,13.47l0 185.83c-0.14,1.81 -15.83,180.42 -227.92,184.72l-493.19 -0.42c-57.12,-0.02 -40,81.8 -40,96.53l0 130.14c0,22.79 -40.9,44.58 -72.92,44.58z"/>
  <path class="fil0" d="M847.01 959.03c-143.74,0 -307.63,-93.61 -361.11,-313.47 -3.25,-13.49 8.16,-26.37 21.94,-24.58 12.64,1.67 29.03,-0.83 40.28,-11.53l0 -121.11c-8.06,-49.58 -1.11,-87.22 20.56,-111.53 24.31,-27.36 56.81,-26.67 60.42,-26.53l491.8 0.28c47.5,-0.47 75.27,-19.74 82.36,7.09 11.67,43.89 17.64,89.44 17.64,135.28 0,304.96 -186.28,466.1 -373.89,466.1zm-315.69 -299.02c58.61,199.02 215.42,273.05 349.3,256.94 149.58,-17.92 300.56,-155.97 300.56,-424.16 0,-35.97 -4.03,-71.81 -11.81,-106.67 -15.28,2.5 -31.25,4.03 -47.92,4.31l-493.19 -0.28c-57.12,-0.02 -40,81.79 -40,96.53l0 130.14c0,20.13 -34.22,39.36 -56.94,43.19z"/>
  <path class="fil0" d="M1192.28 1250.7c-10.97,0 -20,-9.03 -20,-20l0 -98.75c0,-67.64 -75,-128.33 -145.14,-142.64 -25.81,-5.28 -17.69,-44.45 8.06,-39.17 85.14,17.22 177.22,91.67 177.22,181.81l0 98.75c-0.14,10.97 -9.17,20 -20.14,20zm-699.16 -33.75c-11.11,0 -20,-9.03 -20,-20l0 -65c0,-94.44 73.19,-168.19 182.22,-183.33 26.06,-3.65 31.54,36.12 5.42,39.58 -88.33,12.22 -147.64,70 -147.64,143.61l0 65c0,11.25 -8.89,20.14 -20,20.14z"/>
  <path class="fil0" d="M650.2 1430.98l-82.92 0c-26.33,0 -26.33,-40 0,-40l62.92 0 0 -60.83c0,-62.5 -62.08,-113.19 -138.33,-113.19 -76.25,0 -138.33,50.83 -138.33,113.19l0 60.83 62.36 0c26.33,0 26.33,40 0,40l-82.36 0c-11.11,0 -20,-9.03 -20,-20l0 -80.83c0,-84.44 80,-153.33 178.33,-153.33 98.33,0 178.33,68.75 178.33,153.33l0 80.83c-0,11.11 -8.89,20 -20,20z"/>
  <path class="fil0" d="M1192.28 1433.34c-61.39,0 -111.25,-50 -111.25,-111.25 0,-61.25 50,-111.25 111.25,-111.25 61.25,0 111.25,50 111.25,111.25 0,61.25 -49.86,111.25 -111.25,111.25z"/>
  <path class="fil0" d="M844.93 1310.7c0,0 -0.14,0 0,0 -6.11,0 -11.81,-2.78 -15.69,-7.5l-186.81 -234.72c-2.78,-3.47 -4.31,-7.92 -4.31,-12.5l0 -176.67c0,-16.13 18.33,-25.7 31.53,-16.39 106.53,75.28 244.16,75.28 350.55,0 13.24,-9.35 31.53,0.31 31.53,16.39l0 180.97c0,4.58 -1.53,9.03 -4.44,12.64l-186.81 230.56c-3.89,4.58 -9.58,7.22 -15.55,7.22zm-166.8 -261.67l166.94 209.86 166.66 -205.69 0 -137.64c-104.58,58.47 -229.16,58.47 -333.61,0l0 133.47z"/>
 </g>
</svg>
